<svg xmlns="http://www.w3.org/2000/svg" width="250" height="250" fill="none" viewBox="0 0 250 250">
<!-- SVG created with Arrow, by QuiverAI (https://quiver.ai) -->
  <path d="m76.03 16.07c-36.69 9.34-68.99 44.7-69.03 113.7-0.03 39.83 22.21 64.86 55.84 65.24 25.94 0.31 44.08-13.02 52.35-33.35 4.98 11.7 13.27 21.73 21.67 25.54l3.22-1.17 75.07-67.82 0.04-3.08c-3.69-15.07-17.41-28.33-36.14-30.24 2.07-7.6 7.36-14.78 16.56-16.02 10.28-1.4 15.37-10.89 15.37-18.4l-0.1-16.63c-0.41-9.13-5.77-16.67-10.76-16.82h-27.39c-29.41 8.34-52.44 32.91-61.04 81.68l-0.81 8.59c-7.6-12.6-18.18-19.64-30.81-21.85 1.25-7.71 6.24-15.21 15.81-16.71 9.32-1.98 12.96-11 12.64-17.98l-0.27-17.52c-0.78-9.06-4.84-15.9-8.42-16.2l-23.8-0.94z" fill="#112246" opacity=".06"/>
  <path d="m71.74 17.26c-35.53 10.72-64.56 45.51-64.59 110.7-0.03 38.03 21.19 64.32 55.76 64.68 25.3 0.3 42.1-13.66 51.65-34.32 5.22 12.24 12.7 23.59 21.35 26.48l2.72-0.6 76.22-66.26 0.26-2.48c-3.69-15.08-16.73-28.74-36.19-30.65 2.07-7.6 6.79-14.78 15.99-16.02 10.27-1.4 15.37-10.88 15.37-18.4l-0.1-16.62c-0.41-9.14-5.77-16.67-10.76-16.83h-26c-29.41 8.34-53.38 33.99-61.98 90.73-7.46-13.71-17.63-20.75-31.22-22.96 1.25-7.7 5.89-14.75 15.46-16.25 9.32-1.98 12.96-11 12.64-17.98l-0.27-17.52c-0.78-9.06-4.84-15.9-8.42-16.2l-27.89 0.47z" fill="url(#paint0_linear_1_2098)"/>
  <path d="m142.4 177.7c-13.18-6.12-21.61-21.52-21.55-47.92 0.25-51.3 27.87-100.5 71.51-103.9 4.84-0.56 7.03 4.59 6.64 8.8v13c0 5.19-2.67 7.37-5.97 7.81-13.59 2.22-25.92 13.38-26.35 38.38 18.58-0.87 33.26 7.27 40.56 26.43l-64.84 57.39z" fill="url(#paint1_linear_1_2098)" stroke="#20224C" stroke-miterlimit="10" stroke-width="2"/>
  <path d="m63.89 181.3c-26.81-0.18-45.98-18.22-45.98-51.96 0-47.22 22.25-96.27 72.07-103.8 5.8-0.87 7.19 4.1 7.19 7.27l-0.16 15.03c0 5.62-2.83 7.12-6.46 7.55-14.23 2.22-26.56 13.79-26.99 38.52 24.19-1.32 43.74 12.85 43.74 43.28 0 24.6-18.21 44.31-43.41 44.13z" fill="url(#paint2_linear_1_2098)" stroke="#20224C" stroke-miterlimit="10" stroke-width="2"/>
  <path d="m35.92 133.2c0.71-5.25 3.73-7.67 7.99-7.67 4.55 0 7.08 3.74 7.77 7.67 0.4 2.33-3.33 2.89-3.79 0.58-0.77-3.73-2.72-4.8-4.22-4.8-2.38 0-3.86 1.5-4.64 4.8-0.57 2.47-3.45 1.98-3.11-0.58z" fill="#20224C"/>
  <path d="m75.03 132.8c0.71-4.9 3.73-7.32 7.99-7.32 4.55 0 7.08 3.74 7.77 7.67 0.46 2.6-3.27 3.1-3.73 0.58-0.77-3.73-2.72-4.8-4.22-4.8-2.38 0-3.86 1.5-4.64 4.8-0.61 2.64-3.54 1.67-3.17-0.93z" fill="#20224C"/>
  <path d="m53.74 144.6c4.12 4.49 12.93 5.59 18.17 1.04" stroke="#20224C" stroke-linecap="round" stroke-miterlimit="10" stroke-width="3.11"/>
  <path d="m143.2 180.9 71.01-63.75c-7.03 5.58-14.19 4.71-29.69 3.39-17.25-1.51-34.31 9.4-37.58 32.24-1.48 10.36-0.6 18.2-3.74 28.12z" fill="url(#paint3_linear_1_2098)"/>
  <path d="m236.9 129.1-23.84 3.49c-4.16 0.61-6.34 4.52-6.16 7.18l-3.64-3.74-60.12 44.76c-1.9 19.07 15.46 43.15 42.83 43.15 23.73 0 45.27-20.94 45.27-42.89 0-7.06-1.91-14.03-4.29-16.25l5.36 0.99c5.74-0.64 7.67-5 8.66-12.02l2.2-15.03c0.7-4.79-2.34-9.85-6.27-9.64z" fill="url(#paint4_linear_1_2098)"/>
  <path d="m215.8 167.4c-1.69-3.27-5.62-2.83-10.98-2.83v3.21c0 0.84 0.58 1.47 1.28 1.47 3.82 0 3.22 2.27 3.22 8.9 0 4.9 1.79 5.89 5.72 5.33-2.83 0.9-4.41 1.89-4.41 8.91 0 7.48-0.02 8.72-5.87 8.72v3.66c5.74 0 8.94-1.06 9.92-5.87 0.43-2.18 0.12-4.6 0.25-7.02 0.34-4.49 2.03-5.48 4.41-5.91v-3.27c-2.24-0.44-3.54-1.43-3.54-7.52 0-2.9 0.85-5.93 0-7.78z" fill="url(#paint5_linear_1_2098)" stroke="#000" stroke-linecap="round" stroke-linejoin="round" stroke-miterlimit="10" stroke-width="2.2"/>
  <path d="m234.9 137.3-18.58 3.89 5.36 5.35-9.06 9.55 5.29 4.9 11.66-10.15 3.2 5.85 2.98-18.96c0.13-0.64-0.23-0.51-0.85-0.43z" fill="url(#paint6_linear_1_2098)" stroke="#000" stroke-linecap="round" stroke-linejoin="round" stroke-miterlimit="10" stroke-width="3"/>
  <path d="m169 164.6c-4.9 0-8.83 0.99-9.79 5.48-0.43 2.18-0.12 4.6-0.25 7.02-0.35 4.49-2.04 5.48-4.41 5.91v3.27c2.24 0.44 3.9 1.43 3.9 7.05s-0.56 6.99 2.17 9.58c1.48 1.42 4.31 2.09 8.13 2.09v-3.27c0-0.84-0.58-1.47-1.29-1.47-3.82 0-3.96-2.42-3.96-9.05 0-4.49-1.4-5.48-4.23-5.91 2.83-0.99 4.23-1.98 4.23-9.01 0-6.09 0.99-7.08 5.25-7.08v-3.66c0-0.59 0-0.95 0.25-0.95z" fill="url(#paint7_linear_1_2098)" stroke="#000" stroke-linecap="round" stroke-linejoin="round" stroke-miterlimit="10" stroke-width="2.2"/>
  <path d="m174.2 194.1c3.3 1.26 5.41-1.77 4.42-4.87-0.87-2.87-5.92-3.44-7.72-0.34-1.22 2.37-0.14 4.15 3.3 5.21z" fill="url(#paint8_linear_1_2098)" stroke="#000" stroke-linecap="round" stroke-linejoin="round" stroke-miterlimit="10" stroke-width="1.5"/>
  <path d="m185.8 194.1c3.3 1.26 5.41-1.77 4.42-4.87-0.87-2.87-5.92-3.44-7.72-0.34-1.22 2.37-0.14 4.15 3.3 5.21z" fill="url(#paint9_linear_1_2098)" stroke="#000" stroke-linecap="round" stroke-linejoin="round" stroke-miterlimit="10" stroke-width="1.5"/>
  <path d="m197.9 193.5c3.3 1.26 5.41-1.77 4.42-4.86-0.87-2.88-5.92-3.44-7.72-0.35-1.22 2.37-0.14 4.16 3.3 5.21z" fill="url(#paint10_linear_1_2098)" stroke="#000" stroke-linecap="round" stroke-linejoin="round" stroke-miterlimit="10" stroke-width="1.5"/>
  <defs>
    <linearGradient id="paint0_linear_1_2098" x1="109.4" x2="116.6" y1="16.79" y2="191.6" gradientUnits="userSpaceOnUse">
      <stop stop-color="#FEFFFE" offset="0"/>
      <stop stop-color="#FEFFFE" offset=".5104"/>
      <stop stop-color="#D6DCEA" offset=".8594"/>
      <stop stop-color="#B4BAC7" offset="1"/>
    </linearGradient>
    <linearGradient id="paint1_linear_1_2098" x1="137" x2="176.7" y1="38.37" y2="143.7" gradientUnits="userSpaceOnUse">
      <stop stop-color="#46B9F1" offset="0"/>
      <stop stop-color="#757FED" offset=".5365"/>
      <stop stop-color="#A062E7" offset=".9688"/>
    </linearGradient>
    <linearGradient id="paint2_linear_1_2098" x1="36.62" x2="82.59" y1="35.62" y2="177.9" gradientUnits="userSpaceOnUse">
      <stop stop-color="#36CBF1" offset="0"/>
      <stop stop-color="#64A7F2" offset=".5104"/>
      <stop stop-color="#8A78EE" offset="1"/>
    </linearGradient>
    <linearGradient id="paint3_linear_1_2098" x1="157.9" x2="178.4" y1="126.1" y2="150.8" gradientUnits="userSpaceOnUse">
      <stop stop-color="#CCD1D9" offset="0"/>
      <stop stop-color="#FEFFFE" offset=".3385"/>
      <stop stop-color="#D2D7E0" offset=".7083"/>
      <stop stop-color="#A9B0BB" offset="1"/>
    </linearGradient>
    <linearGradient id="paint4_linear_1_2098" x1="159.3" x2="225.4" y1="136.6" y2="208.3" gradientUnits="userSpaceOnUse">
      <stop stop-color="#D4E4B4" offset="0"/>
      <stop stop-color="#FEFFFE" offset=".25"/>
      <stop stop-color="#C0E9F1" offset=".5312"/>
      <stop stop-color="#F0D5F9" offset=".7969"/>
      <stop stop-color="#D0B9F0" offset="1"/>
    </linearGradient>
    <linearGradient id="paint5_linear_1_2098" x1="204.8" x2="220.4" y1="184.7" y2="184.7" gradientUnits="userSpaceOnUse">
      <stop stop-color="#F3D079" offset="0"/>
      <stop stop-color="#64C2A0" offset=".5052"/>
      <stop stop-color="#4594EA" offset="1"/>
    </linearGradient>
    <linearGradient id="paint6_linear_1_2098" x1="212.7" x2="235.8" y1="149.1" y2="149.1" gradientUnits="userSpaceOnUse">
      <stop stop-color="#90B0F5" offset="0"/>
      <stop stop-color="#8073E6" offset="1"/>
    </linearGradient>
    <linearGradient id="paint7_linear_1_2098" x1="154.6" x2="169.1" y1="184.8" y2="184.8" gradientUnits="userSpaceOnUse">
      <stop stop-color="#F78B69" offset="0"/>
      <stop stop-color="#F0586A" offset="1"/>
    </linearGradient>
    <linearGradient id="paint8_linear_1_2098" x1="170.4" x2="179" y1="190.2" y2="190.2" gradientUnits="userSpaceOnUse">
      <stop stop-color="#F6A569" offset="0"/>
      <stop stop-color="#F48169" offset="1"/>
    </linearGradient>
    <linearGradient id="paint9_linear_1_2098" x1="182.5" x2="190.8" y1="189.9" y2="189.9" gradientUnits="userSpaceOnUse">
      <stop stop-color="#A6D085" offset="0"/>
      <stop stop-color="#68BE9B" offset="1"/>
    </linearGradient>
    <linearGradient id="paint10_linear_1_2098" x1="194.1" x2="202.7" y1="189.8" y2="189.8" gradientUnits="userSpaceOnUse">
      <stop stop-color="#99C9E7" offset="0"/>
      <stop stop-color="#5496D0" offset="1"/>
    </linearGradient>
  </defs>
</svg>
